# MagicaVoxel @ ephtracy

# material
mtllib treedemo.mtl
usemtl palette

# normals
vn -1 0 0
vn 1 0 0
vn 0 0 1
vn 0 0 -1
vn 0 -1 0
vn 0 1 0

# texcoords
vt 0.369141 0.5
vt 0.580078 0.5

# verts
v -5 24 3
v -5 24 -2
v -5 30 3
v -5 30 1
v -5 30 -0
v -5 30 -2
v -5 31 1
v -5 31 -0
v -4 0 2
v -4 0 1
v -4 1 2
v -4 1 1
v -4 17 4
v -4 17 -0
v -4 22 4
v -4 22 -0
v -3 1 2
v -3 1 1
v -3 4 2
v -3 4 1
v -2 0 3
v -2 0 2
v -2 0 1
v -2 0 -0
v -2 4 2
v -2 4 1
v -2 5 3
v -2 5 2
v -2 7 1
v -2 7 -0
v -2 14 2
v -2 14 1
v -2 19 -0
v -2 19 -2
v -2 22 3
v -2 22 -0
v -2 24 3
v -2 24 -2
v -1 0 -0
v -1 0 -1
v -1 1 -0
v -1 1 -1
v -1 5 3
v -1 5 2
v -1 7 1
v -1 7 -0
v -1 11 3
v -1 11 2
v -1 14 2
v -1 14 1
v -1 17 2
v -1 17 -0
v -1 30 3
v -1 30 1
v -1 30 -0
v -1 30 -2
v -1 31 1
v -1 31 -0
v -1 32 3
v -1 32 -2
v 0 1 -0
v 0 1 -1
v 0 10 -0
v 0 10 -1
v 0 11 3
v 0 11 2
v 0 14 3
v 0 14 2
v 1 22 -2
v 1 22 -4
v 1 27 -2
v 1 27 -4
v 0 17 4
v 0 17 2
v 0 19 3
v 0 19 2
v 0 22 4
v 0 22 3
v 1 0 3
v 1 0 2
v 1 0 1
v 1 0 -1
v 1 10 -0
v 1 10 -1
v 1 11 2
v 1 11 1
v 1 11 -0
v 1 14 3
v 1 14 2
v 1 19 2
v 1 19 1
v 2 0 2
v 2 0 1
v 2 11 2
v 2 11 1
v 2 11 -0
v 2 19 3
v 2 19 1
v 2 19 -0
v 2 24 3
v 2 24 1
v 3 19 1
v 3 19 -2
v 3 22 -0
v 3 22 -2
v 3 24 3
v 3 24 1
v 3 27 -0
v 3 27 -2
v 3 32 3
v 3 32 -2
v 5 22 -0
v 5 22 -4
v 5 27 -0
v 5 27 -4
v -4 17 4
v -4 22 4
v 0 17 4
v 0 22 4
v -5 24 3
v -5 30 3
v -2 0 3
v -2 5 3
v -2 22 3
v -2 24 3
v -1 5 3
v -1 11 3
v -1 30 3
v -1 32 3
v 0 11 3
v 0 14 3
v 0 19 3
v 0 22 3
v 1 0 3
v 1 14 3
v 2 19 3
v 2 24 3
v 3 24 3
v 3 32 3
v -4 0 2
v -4 1 2
v -3 1 2
v -3 4 2
v -2 0 2
v -2 4 2
v -2 5 2
v -2 14 2
v -1 5 2
v -1 11 2
v -1 14 2
v -1 17 2
v 0 11 2
v 0 14 2
v 0 17 2
v 0 19 2
v 1 0 2
v 1 11 2
v 1 14 2
v 1 19 2
v 2 0 2
v 2 11 2
v -5 30 1
v -5 31 1
v -1 30 1
v -1 31 1
v 1 11 1
v 1 19 1
v 2 11 1
v 2 19 1
v 2 24 1
v 3 19 1
v 3 24 1
v 3 22 -0
v 3 27 -0
v 5 22 -0
v 5 27 -0
v -4 0 1
v -4 1 1
v -3 1 1
v -3 4 1
v -2 0 1
v -2 4 1
v -2 7 1
v -2 14 1
v -1 7 1
v -1 14 1
v 1 0 1
v 1 11 1
v 2 0 1
v 2 11 1
v -5 30 -0
v -5 31 -0
v -4 17 -0
v -4 22 -0
v -2 0 -0
v -2 7 -0
v -2 19 -0
v -2 22 -0
v -1 0 -0
v -1 1 -0
v -1 7 -0
v -1 17 -0
v -1 19 -0
v -1 30 -0
v -1 31 -0
v 0 1 -0
v 0 10 -0
v 1 10 -0
v 1 11 -0
v 2 11 -0
v 2 19 -0
v -1 0 -1
v -1 1 -1
v 0 1 -1
v 0 10 -1
v 1 0 -1
v 1 10 -1
v -5 24 -2
v -5 30 -2
v -2 19 -2
v -2 24 -2
v -1 30 -2
v -1 32 -2
v 1 22 -2
v 1 27 -2
v 3 19 -2
v 3 22 -2
v 3 27 -2
v 3 32 -2
v 1 22 -4
v 1 27 -4
v 5 22 -4
v 5 27 -4
v -2 0 3
v 1 0 3
v -4 0 2
v -2 0 2
v 1 0 2
v 2 0 2
v -4 0 1
v -2 0 1
v 1 0 1
v 2 0 1
v -2 0 -0
v -1 0 -0
v -1 0 -1
v 1 0 -1
v 1 11 1
v 2 11 1
v 1 11 -0
v 2 11 -0
v -4 17 4
v 0 17 4
v -1 17 2
v 0 17 2
v -4 17 -0
v -1 17 -0
v 0 19 3
v 2 19 3
v 0 19 2
v 1 19 2
v 1 19 1
v 2 19 1
v 3 19 1
v -2 19 -0
v -1 19 -0
v 2 19 -0
v -2 19 -2
v 3 19 -2
v 3 22 -0
v 5 22 -0
v 1 22 -2
v 3 22 -2
v 1 22 -4
v 5 22 -4
v -5 24 3
v -2 24 3
v 2 24 3
v 3 24 3
v 2 24 1
v 3 24 1
v -5 24 -2
v -2 24 -2
v -4 1 2
v -3 1 2
v -4 1 1
v -3 1 1
v -1 1 -0
v 0 1 -0
v -1 1 -1
v 0 1 -1
v -3 4 2
v -2 4 2
v -3 4 1
v -2 4 1
v -2 5 3
v -1 5 3
v -2 5 2
v -1 5 2
v -2 7 1
v -1 7 1
v -2 7 -0
v -1 7 -0
v 0 10 -0
v 1 10 -0
v 0 10 -1
v 1 10 -1
v -1 11 3
v 0 11 3
v -1 11 2
v 0 11 2
v 1 11 2
v 2 11 2
v 1 11 1
v 2 11 1
v 0 14 3
v 1 14 3
v -2 14 2
v -1 14 2
v 0 14 2
v 1 14 2
v -2 14 1
v -1 14 1
v -4 22 4
v 0 22 4
v -2 22 3
v 0 22 3
v -4 22 -0
v -2 22 -0
v 3 27 -0
v 5 27 -0
v 1 27 -2
v 3 27 -2
v 1 27 -4
v 5 27 -4
v -5 30 3
v -1 30 3
v -5 30 1
v -1 30 1
v -5 30 -0
v -1 30 -0
v -5 30 -2
v -1 30 -2
v -5 31 1
v -1 31 1
v -5 31 -0
v -1 31 -0
v -1 32 3
v 3 32 3
v -1 32 -2
v 3 32 -2

# faces
f 3/2/1 2/2/1 1/2/1
f 4/2/1 2/2/1 3/2/1
f 5/2/1 2/2/1 4/2/1
f 6/2/1 2/2/1 5/2/1
f 7/2/1 5/2/1 4/2/1
f 8/2/1 5/2/1 7/2/1
f 11/1/1 10/1/1 9/1/1
f 12/1/1 10/1/1 11/1/1
f 15/2/1 14/2/1 13/2/1
f 16/2/1 14/2/1 15/2/1
f 19/1/1 18/1/1 17/1/1
f 20/1/1 18/1/1 19/1/1
f 25/1/1 22/1/1 21/1/1
f 26/1/1 24/1/1 23/1/1
f 27/1/1 25/1/1 21/1/1
f 27/1/1 26/1/1 25/1/1
f 28/1/1 26/1/1 27/1/1
f 29/1/1 24/1/1 26/1/1
f 29/1/1 26/1/1 28/1/1
f 30/1/1 24/1/1 29/1/1
f 31/1/1 29/1/1 28/1/1
f 32/1/1 29/1/1 31/1/1
f 36/2/1 34/2/1 33/2/1
f 37/2/1 36/2/1 35/2/1
f 38/2/1 34/2/1 36/2/1
f 38/2/1 36/2/1 37/2/1
f 41/1/1 40/1/1 39/1/1
f 42/1/1 40/1/1 41/1/1
f 47/1/1 44/1/1 43/1/1
f 48/1/1 44/1/1 47/1/1
f 50/1/1 46/1/1 45/1/1
f 51/1/1 50/1/1 49/1/1
f 52/1/1 46/1/1 50/1/1
f 52/1/1 50/1/1 51/1/1
f 57/2/1 54/2/1 53/2/1
f 58/2/1 56/2/1 55/2/1
f 59/2/1 57/2/1 53/2/1
f 59/2/1 58/2/1 57/2/1
f 60/2/1 56/2/1 58/2/1
f 60/2/1 58/2/1 59/2/1
f 63/1/1 62/1/1 61/1/1
f 64/1/1 62/1/1 63/1/1
f 67/1/1 66/1/1 65/1/1
f 68/1/1 66/1/1 67/1/1
f 71/2/1 70/2/1 69/2/1
f 72/2/1 70/2/1 71/2/1
f 73/2/2 74/2/2 75/2/2
f 75/2/2 74/2/2 76/2/2
f 73/2/2 75/2/2 77/2/2
f 77/2/2 75/2/2 78/2/2
f 81/1/2 82/1/2 83/1/2
f 83/1/2 82/1/2 84/1/2
f 79/1/2 80/1/2 85/1/2
f 81/1/2 83/1/2 86/1/2
f 86/1/2 83/1/2 87/1/2
f 79/1/2 85/1/2 88/1/2
f 85/1/2 86/1/2 88/1/2
f 88/1/2 86/1/2 89/1/2
f 89/1/2 86/1/2 90/1/2
f 90/1/2 86/1/2 91/1/2
f 92/1/2 93/1/2 94/1/2
f 94/1/2 93/1/2 95/1/2
f 95/1/2 96/1/2 98/1/2
f 98/1/2 96/1/2 99/1/2
f 97/2/2 98/2/2 100/2/2
f 100/2/2 98/2/2 101/2/2
f 102/2/2 103/2/2 104/2/2
f 104/2/2 103/2/2 105/2/2
f 102/2/2 104/2/2 107/2/2
f 107/2/2 104/2/2 108/2/2
f 106/2/2 107/2/2 108/2/2
f 106/2/2 108/2/2 110/2/2
f 108/2/2 109/2/2 110/2/2
f 110/2/2 109/2/2 111/2/2
f 112/2/2 113/2/2 114/2/2
f 114/2/2 113/2/2 115/2/2
f 118/2/3 117/2/3 116/2/3
f 119/2/3 117/2/3 118/2/3
f 125/2/3 121/2/3 120/2/3
f 126/1/3 123/1/3 122/1/3
f 128/2/3 125/2/3 124/2/3
f 128/2/3 121/2/3 125/2/3
f 130/1/3 127/1/3 126/1/3
f 133/2/3 129/2/3 128/2/3
f 133/2/3 128/2/3 124/2/3
f 134/1/3 131/1/3 130/1/3
f 134/1/3 126/1/3 122/1/3
f 134/1/3 130/1/3 126/1/3
f 135/1/3 131/1/3 134/1/3
f 136/2/3 133/2/3 132/2/3
f 137/2/3 129/2/3 133/2/3
f 137/2/3 133/2/3 136/2/3
f 138/2/3 129/2/3 137/2/3
f 139/2/3 129/2/3 138/2/3
f 142/1/3 141/1/3 140/1/3
f 144/1/3 142/1/3 140/1/3
f 144/1/3 143/1/3 142/1/3
f 145/1/3 143/1/3 144/1/3
f 148/1/3 147/1/3 146/1/3
f 149/1/3 147/1/3 148/1/3
f 150/1/3 147/1/3 149/1/3
f 152/1/3 151/1/3 150/1/3
f 152/1/3 150/1/3 149/1/3
f 153/1/3 151/1/3 152/1/3
f 154/1/3 151/1/3 153/1/3
f 158/1/3 155/1/3 154/1/3
f 158/1/3 154/1/3 153/1/3
f 159/1/3 155/1/3 158/1/3
f 160/1/3 157/1/3 156/1/3
f 161/1/3 157/1/3 160/1/3
f 164/2/3 163/2/3 162/2/3
f 165/2/3 163/2/3 164/2/3
f 168/1/3 167/1/3 166/1/3
f 169/1/3 167/1/3 168/1/3
f 171/2/3 170/2/3 169/2/3
f 172/2/3 170/2/3 171/2/3
f 175/2/3 174/2/3 173/2/3
f 176/2/3 174/2/3 175/2/3
f 177/1/4 178/1/4 179/1/4
f 177/1/4 179/1/4 181/1/4
f 179/1/4 180/1/4 181/1/4
f 181/1/4 180/1/4 182/1/4
f 183/1/4 184/1/4 185/1/4
f 185/1/4 184/1/4 186/1/4
f 187/1/4 188/1/4 189/1/4
f 189/1/4 188/1/4 190/1/4
f 193/2/4 194/2/4 197/2/4
f 197/2/4 194/2/4 198/2/4
f 195/1/4 196/1/4 199/1/4
f 199/1/4 196/1/4 200/1/4
f 200/1/4 196/1/4 201/1/4
f 193/2/4 197/2/4 202/2/4
f 202/2/4 197/2/4 203/2/4
f 191/2/4 192/2/4 204/2/4
f 204/2/4 192/2/4 205/2/4
f 202/1/4 203/1/4 206/1/4
f 201/1/4 202/1/4 206/1/4
f 200/1/4 201/1/4 206/1/4
f 206/1/4 203/1/4 207/1/4
f 207/1/4 203/1/4 208/1/4
f 208/1/4 203/1/4 209/1/4
f 209/1/4 203/1/4 210/1/4
f 210/1/4 203/1/4 211/1/4
f 212/1/4 213/1/4 214/1/4
f 212/1/4 214/1/4 216/1/4
f 214/1/4 215/1/4 216/1/4
f 216/1/4 215/1/4 217/1/4
f 218/2/4 219/2/4 221/2/4
f 221/2/4 219/2/4 222/2/4
f 220/2/4 221/2/4 222/2/4
f 220/2/4 222/2/4 224/2/4
f 222/2/4 223/2/4 224/2/4
f 224/2/4 223/2/4 225/2/4
f 220/2/4 224/2/4 226/2/4
f 226/2/4 224/2/4 227/2/4
f 225/2/4 223/2/4 228/2/4
f 228/2/4 223/2/4 229/2/4
f 230/2/4 231/2/4 232/2/4
f 232/2/4 231/2/4 233/2/4
f 237/1/5 235/1/5 234/1/5
f 238/1/5 235/1/5 237/1/5
f 240/1/5 237/1/5 236/1/5
f 240/1/5 239/1/5 238/1/5
f 240/1/5 238/1/5 237/1/5
f 241/1/5 239/1/5 240/1/5
f 242/1/5 239/1/5 241/1/5
f 243/1/5 239/1/5 242/1/5
f 244/1/5 242/1/5 241/1/5
f 245/1/5 242/1/5 244/1/5
f 246/1/5 242/1/5 245/1/5
f 247/1/5 242/1/5 246/1/5
f 250/1/5 249/1/5 248/1/5
f 251/1/5 249/1/5 250/1/5
f 254/2/5 253/2/5 252/2/5
f 255/2/5 253/2/5 254/2/5
f 256/2/5 254/2/5 252/2/5
f 257/2/5 254/2/5 256/2/5
f 260/2/5 259/2/5 258/2/5
f 261/2/5 259/2/5 260/2/5
f 262/2/5 259/2/5 261/2/5
f 263/2/5 259/2/5 262/2/5
f 267/2/5 264/2/5 263/2/5
f 268/2/5 266/2/5 265/2/5
f 268/2/5 267/2/5 266/2/5
f 269/2/5 264/2/5 267/2/5
f 269/2/5 267/2/5 268/2/5
f 273/2/5 271/2/5 270/2/5
f 274/2/5 273/2/5 272/2/5
f 275/2/5 271/2/5 273/2/5
f 275/2/5 273/2/5 274/2/5
f 280/2/5 279/2/5 278/2/5
f 281/2/5 279/2/5 280/2/5
f 282/2/5 277/2/5 276/2/5
f 283/2/5 277/2/5 282/2/5
f 284/1/6 285/1/6 286/1/6
f 286/1/6 285/1/6 287/1/6
f 288/1/6 289/1/6 290/1/6
f 290/1/6 289/1/6 291/1/6
f 292/1/6 293/1/6 294/1/6
f 294/1/6 293/1/6 295/1/6
f 296/1/6 297/1/6 298/1/6
f 298/1/6 297/1/6 299/1/6
f 300/1/6 301/1/6 302/1/6
f 302/1/6 301/1/6 303/1/6
f 304/1/6 305/1/6 306/1/6
f 306/1/6 305/1/6 307/1/6
f 308/1/6 309/1/6 310/1/6
f 310/1/6 309/1/6 311/1/6
f 312/1/6 313/1/6 314/1/6
f 314/1/6 313/1/6 315/1/6
f 316/1/6 317/1/6 320/1/6
f 320/1/6 317/1/6 321/1/6
f 318/1/6 319/1/6 322/1/6
f 322/1/6 319/1/6 323/1/6
f 324/2/6 325/2/6 326/2/6
f 326/2/6 325/2/6 327/2/6
f 324/2/6 326/2/6 328/2/6
f 328/2/6 326/2/6 329/2/6
f 330/2/6 331/2/6 333/2/6
f 332/2/6 333/2/6 334/2/6
f 333/2/6 331/2/6 335/2/6
f 334/2/6 333/2/6 335/2/6
f 336/2/6 337/2/6 338/2/6
f 338/2/6 337/2/6 339/2/6
f 340/2/6 341/2/6 342/2/6
f 342/2/6 341/2/6 343/2/6
f 344/2/6 345/2/6 346/2/6
f 346/2/6 345/2/6 347/2/6
f 348/2/6 349/2/6 350/2/6
f 350/2/6 349/2/6 351/2/6
