# MagicaVoxel @ Ephtracy

# material
mtllib fish_1_c.mtl
usemtl palette

# normals
vn -1 0 0
vn 1 0 0
vn 0 0 1
vn 0 0 -1
vn 0 -1 0
vn 0 1 0

# texcoords
vt 0.142578 0.5
vt 0.958984 0.5

# verts
v -2 2 5
v -2 2 -2
v -2 3 6
v -2 3 5
v -2 3 3
v -2 3 -2
v -2 4 8
v -2 4 6
v -2 4 4
v -2 4 3
v -2 5 8
v -2 5 4
v -1 2 6
v -1 2 5
v -1 2 -2
v -1 2 -3
v -1 3 7
v -1 3 6
v -1 3 5
v -1 3 -2
v -1 3 -3
v -1 4 7
v -1 4 6
v 1 2 6
v 1 2 5
v 1 2 -2
v 1 2 -3
v 1 3 7
v 1 3 6
v 1 3 5
v 1 3 -2
v 1 3 -3
v 1 4 7
v 1 4 6
v 2 2 5
v 2 2 -2
v 2 3 6
v 2 3 5
v 2 3 3
v 2 3 -2
v 2 4 8
v 2 4 6
v 2 4 4
v 2 4 3
v 2 5 8
v 2 5 4
v -2 4 8
v -2 5 8
v 2 4 8
v 2 5 8
v -1 3 7
v -1 4 7
v 1 3 7
v 1 4 7
v -2 3 6
v -2 4 6
v -1 2 6
v -1 3 6
v -1 4 6
v 1 2 6
v 1 3 6
v 1 4 6
v 2 3 6
v 2 4 6
v -2 2 5
v -2 3 5
v -1 2 5
v -1 3 5
v 1 2 5
v 1 3 5
v 2 2 5
v 2 3 5
v -2 4 4
v -2 5 4
v -1 4 4
v -1 5 4
v 1 4 4
v 1 5 4
v 2 4 4
v 2 5 4
v -2 3 3
v -2 4 3
v -1 3 3
v -1 4 3
v 1 3 3
v 1 4 3
v 2 3 3
v 2 4 3
v -2 2 -2
v -2 3 -2
v -1 2 -2
v -1 3 -2
v 1 2 -2
v 1 3 -2
v 2 2 -2
v 2 3 -2
v -1 2 -3
v -1 3 -3
v 1 2 -3
v 1 3 -3
v -1 2 6
v 1 2 6
v -2 2 5
v -1 2 5
v 1 2 5
v 2 2 5
v -2 2 -2
v -1 2 -2
v 1 2 -2
v 2 2 -2
v -1 2 -3
v 1 2 -3
v -1 3 7
v 1 3 7
v -2 3 6
v -1 3 6
v 1 3 6
v 2 3 6
v -2 3 5
v -1 3 5
v 1 3 5
v 2 3 5
v -2 4 8
v 2 4 8
v -1 4 7
v 1 4 7
v -2 4 6
v -1 4 6
v 1 4 6
v 2 4 6
v -2 3 3
v -1 3 3
v 1 3 3
v 2 3 3
v -2 3 -2
v -1 3 -2
v 1 3 -2
v 2 3 -2
v -1 3 -3
v 1 3 -3
v -2 4 4
v -1 4 4
v 1 4 4
v 2 4 4
v -2 4 3
v -1 4 3
v 1 4 3
v 2 4 3
v -2 5 8
v 2 5 8
v -1 5 6
v 1 5 6
v -2 5 4
v -1 5 4
v 1 5 4
v 2 5 4

# faces
f 4/2/1 2/2/1 1/2/1
f 5/2/1 2/2/1 4/2/1
f 6/2/1 2/2/1 5/2/1
f 8/2/1 4/2/1 3/2/1
f 8/2/1 5/2/1 4/2/1
f 9/2/1 5/2/1 8/2/1
f 10/2/1 5/2/1 9/2/1
f 11/2/1 8/2/1 7/2/1
f 11/2/1 9/2/1 8/2/1
f 12/2/1 9/2/1 11/2/1
f 18/2/1 14/2/1 13/2/1
f 19/2/1 14/2/1 18/2/1
f 20/2/1 16/2/1 15/2/1
f 21/2/1 16/2/1 20/2/1
f 22/2/1 18/2/1 17/2/1
f 23/2/1 18/2/1 22/2/1
f 24/2/2 25/2/2 29/2/2
f 29/2/2 25/2/2 30/2/2
f 26/2/2 27/2/2 31/2/2
f 31/2/2 27/2/2 32/2/2
f 28/2/2 29/2/2 33/2/2
f 33/2/2 29/2/2 34/2/2
f 35/2/2 36/2/2 38/2/2
f 38/2/2 36/2/2 39/2/2
f 39/2/2 36/2/2 40/2/2
f 37/2/2 38/2/2 42/2/2
f 38/2/2 39/2/2 42/2/2
f 42/2/2 39/2/2 43/2/2
f 43/2/2 39/2/2 44/2/2
f 41/2/2 42/2/2 45/2/2
f 42/2/2 43/2/2 45/2/2
f 45/2/2 43/2/2 46/2/2
f 49/2/3 48/2/3 47/2/3
f 50/2/3 48/2/3 49/2/3
f 53/2/3 52/2/3 51/2/3
f 54/2/3 52/2/3 53/2/3
f 58/2/3 56/2/3 55/2/3
f 59/2/3 56/2/3 58/2/3
f 60/2/3 58/2/3 57/2/3
f 61/2/3 58/2/3 60/2/3
f 63/2/3 62/2/3 61/2/3
f 64/2/3 62/2/3 63/2/3
f 67/2/3 66/2/3 65/2/3
f 68/2/3 66/2/3 67/2/3
f 71/2/3 70/2/3 69/2/3
f 72/2/3 70/2/3 71/2/3
f 73/2/4 74/2/4 75/2/4
f 75/2/4 74/2/4 76/2/4
f 75/1/4 76/1/4 77/1/4
f 77/1/4 76/1/4 78/1/4
f 77/2/4 78/2/4 79/2/4
f 79/2/4 78/2/4 80/2/4
f 81/2/4 82/2/4 83/2/4
f 83/2/4 82/2/4 84/2/4
f 83/1/4 84/1/4 85/1/4
f 85/1/4 84/1/4 86/1/4
f 85/2/4 86/2/4 87/2/4
f 87/2/4 86/2/4 88/2/4
f 89/2/4 90/2/4 91/2/4
f 91/2/4 90/2/4 92/2/4
f 93/2/4 94/2/4 95/2/4
f 95/2/4 94/2/4 96/2/4
f 97/2/4 98/2/4 99/2/4
f 99/2/4 98/2/4 100/2/4
f 104/2/5 102/2/5 101/2/5
f 105/2/5 102/2/5 104/2/5
f 107/2/5 104/2/5 103/2/5
f 107/2/5 106/2/5 105/2/5
f 107/2/5 105/2/5 104/2/5
f 108/2/5 106/2/5 107/2/5
f 109/2/5 106/2/5 108/2/5
f 110/2/5 106/2/5 109/2/5
f 111/2/5 109/2/5 108/2/5
f 112/2/5 109/2/5 111/2/5
f 116/2/5 114/2/5 113/2/5
f 117/2/5 114/2/5 116/2/5
f 119/2/5 116/2/5 115/2/5
f 120/2/5 116/2/5 119/2/5
f 121/2/5 118/2/5 117/2/5
f 122/2/5 118/2/5 121/2/5
f 125/2/5 124/2/5 123/2/5
f 126/2/5 124/2/5 125/2/5
f 127/2/5 125/2/5 123/2/5
f 128/2/5 125/2/5 127/2/5
f 129/2/5 124/2/5 126/2/5
f 130/2/5 124/2/5 129/2/5
f 131/2/6 132/2/6 135/2/6
f 133/2/6 134/2/6 135/2/6
f 132/2/6 133/2/6 135/2/6
f 135/2/6 134/2/6 136/2/6
f 136/2/6 134/2/6 137/2/6
f 137/2/6 134/2/6 138/2/6
f 136/2/6 137/2/6 139/2/6
f 139/2/6 137/2/6 140/2/6
f 141/2/6 142/2/6 145/2/6
f 142/1/6 143/1/6 146/1/6
f 145/2/6 142/2/6 146/2/6
f 143/2/6 144/2/6 147/2/6
f 146/1/6 143/1/6 147/1/6
f 147/2/6 144/2/6 148/2/6
f 149/2/6 150/2/6 151/2/6
f 151/2/6 150/2/6 152/2/6
f 149/2/6 151/2/6 153/2/6
f 151/1/6 152/1/6 154/1/6
f 153/2/6 151/2/6 154/2/6
f 152/2/6 150/2/6 155/2/6
f 154/1/6 152/1/6 155/1/6
f 155/2/6 150/2/6 156/2/6
